<?xml version="1.0" encoding="utf-8"?>
<!-- Generator: Adobe Illustrator 19.2.0, SVG Export Plug-In . SVG Version: 6.00 Build 0)  -->
<svg version="1.1"
	 id="svg2" inkscape:version="0.91 r13725" xmlns:cc="http://creativecommons.org/ns#" xmlns:dc="http://purl.org/dc/elements/1.1/" xmlns:inkscape="http://www.inkscape.org/namespaces/inkscape" xmlns:ns1="http://sozi.baierouge.fr" xmlns:rdf="http://www.w3.org/1999/02/22-rdf-syntax-ns#" xmlns:sodipodi="http://sodipodi.sourceforge.net/DTD/sodipodi-0.dtd"
	 xmlns="http://www.w3.org/2000/svg" xmlns:xlink="http://www.w3.org/1999/xlink" x="0px" y="0px" viewBox="0 0 1475.4 801.7"
	 style="enable-background:new 0 0 1475.4 801.7;" xml:space="preserve">
<style type="text/css">
	.st0{fill:#FFFFFF;}
</style>
<path id="path3035" class="st0" d="M334.5,49c-18.3,12.3-38.5,27.5-54.8,44.4c-28.9,30.1-57.5,64-82.2,97.9
	c-16.6,22.9-38.2,57.7-50,83.3c-15.7,34.1-25,57.9-33.6,95.3c-12.1,52.7-10.5,106.8,1.9,157.8c18.1,75,76.2,137.8,134.1,188.8
	c45.4,39.9,106.3,65.9,159.9,85.1l5.5-14.6c-53.1-19-109.4-44.3-152.8-82.6C206.6,655.3,155,595.3,132.7,523.8
	c-13.6-43.5-16.7-91.3-9.6-137.5c6.2-40.5,21.9-81.1,37.2-118c12.6-30.3,27.2-54,45.1-78.9c22.6-31.6,47.5-62.4,74-90.5
	c17.1-18.2,40-34.6,58.4-47L334.5,49z"/>
<path id="path3809" class="st0" d="M311.2,757c0,0-37.6-11.9-67.5-8.4c-47.4,5.6-51.8,35-51.8,35s19,11.8,59.8,7.3
	C299.6,785.7,311.2,757,311.2,757L311.2,757z"/>
<path id="path3811" class="st0" d="M247.1,713c0,0-31.7-15-61.8-14.8c-52.1,0.4-55.2,28-55.2,28s18.8,13.6,60.5,13
	C238.8,738.6,247.1,713,247.1,713L247.1,713z"/>
<path id="path3813" class="st0" d="M199.7,666.8c0,0-30.2-26.4-59.3-33.7c-50.5-12.7-67.2,16.7-67.2,16.7s18.8,22.5,59.3,32.4
	C179.2,693.6,199.7,666.8,199.7,666.8L199.7,666.8z"/>
<path id="path3815" class="st0" d="M146.2,595.6c0,0-25.8-27.2-61.1-38c-46.1-14.2-67.7,13.6-68.4,14.3c0,0,18.9,23.8,58.3,34.2
	C127.8,620,146.2,595.6,146.2,595.6z"/>
<path id="path3817" class="st0" d="M120.7,538.9c0,0-24-36.6-59.8-53.8c-34.8-16.8-60.2-2.5-60.9-1.9c0,0,17.9,32.7,50.8,48.3
	C95.5,552.7,120.7,538.9,120.7,538.9L120.7,538.9z"/>
<path id="path3819" class="st0" d="M113,489.2c-12.8-12.1-13.8-44.8-32.1-71.4c-25.6-37.1-67.7-34.4-68.4-34.1
	c0,0,4.5,46.2,36.5,74.2C83,487.5,113,489.2,113,489.2L113,489.2z"/>
<path id="path3821" class="st0" d="M109.4,411.2c0,0,1.2-40.2-9.4-70.7c-14.8-42.6-55.1-50.9-55.8-50.8c0,0-6.5,45.5,16.8,81
	C85.9,408.4,109.4,411.2,109.4,411.2L109.4,411.2z"/>
<path id="path3823" class="st0" d="M126.5,335.9c0,0,8-33.7,4-65.8c-6.1-48.3-43.7-58.5-44.4-58.5c0,0-12.9,44.7,5.4,83
	C111,335.4,126.5,335.9,126.5,335.9L126.5,335.9z"/>
<path id="path3830" class="st0" d="M159.6,255.1c0,0,13.1-30.5,11.4-62.8c-2.3-44.8-32.7-63.7-33.4-63.7c0,0-29.3,26.4-12.5,83.1
	C135.4,246.2,159.6,255.1,159.6,255.1L159.6,255.1z"/>
<path id="path3832" class="st0" d="M201.7,188.6c0,0,19.5-30,24.8-61.8c5.1-29.9-7.1-62.5-9.8-65.5c0,0-31.6,13.9-30.5,67.3
	C187.1,164.5,201.7,188.6,201.7,188.6L201.7,188.6z"/>
<path id="path3834" class="st0" d="M253.5,124.4c0,0,23.2-24.7,29.2-58.5c5-28,0-58.4-5.3-66c0,0-30.2,18.8-32.4,66.3
	C243.3,102.2,251.1,119.3,253.5,124.4L253.5,124.4z"/>
<path id="path3836" class="st0" d="M291,85.1c0,0,44.2,1.6,66.2-11.2c24.6-14.3,48.7-45.3,50.6-54.3c0,0-38.7-17-74.8,14
	C305.8,57.1,293.2,79.8,291,85.1L291,85.1z"/>
<path id="path3838" class="st0" d="M242.3,138.4c0,0,21.1-24.8,57.5-31.1c28-4.9,49.5-0.4,63.4,7.7c0,0-21.3,27.3-62.2,31.1
	C265.2,149.3,247.6,140.7,242.3,138.4L242.3,138.4z"/>
<path id="path3840" class="st0" d="M198.6,195.5c0,0,20.1-23.7,56.5-30.1c28-4.9,41.4,0.1,55.3,8.2c0,0-17,26.1-57.9,29.8
	C216.7,206.7,203.9,197.7,198.6,195.5L198.6,195.5z"/>
<path id="path3842" class="st0" d="M156.2,270c0,0,18.8-29.3,52.8-43.6c34.8-14.7,52.7-7.7,67.7-2.1c-4.8,7.2-24.3,37-56,46
	C186.2,280.1,161.8,271.3,156.2,270L156.2,270z"/>
<path id="path3844" class="st0" d="M131.1,336.1c0,0,16.7-30.5,49.6-47.2c33.7-17.1,52.1-11.4,67.4-6.9
	c-4.3,7.5-21.6,38.7-52.6,49.9C161.6,344.1,136.7,337,131.1,336.1L131.1,336.1z"/>
<path id="path3846" class="st0" d="M117.8,414.6c14.4-18.5,22.3-38.4,44.4-58.1c27.3-24.4,50.8-16.6,66.7-15
	c-7.8,14.7-19.6,38-43.9,55.5C156,418,123.5,414.5,117.8,414.6L117.8,414.6z"/>
<path id="path3848" class="st0" d="M119.6,487c12.3-20,18.1-35.6,37.9-57.7c24.4-27.3,47.6-22.4,63.6-22.7
	c-6.1,15.5-16.5,38.7-38.7,58.8C155.9,489.7,125.3,486.3,119.6,487z"/>
<path id="path3850" class="st0" d="M135.4,544.8c18.4-28.5,16.1-34.9,34.2-58.5c19.4-25.4,43.9-24.7,59.8-26.2
	c-4.9,15.9-12.2,37.5-32.8,59.2C174.5,542.5,151.6,539.5,135.4,544.8L135.4,544.8z"/>
<path id="path3852" class="st0" d="M165.7,601.3c11.6-25.2,9.6-40.9,20.3-58.8c17.4-29.2,34.5-30.5,50.5-32
	c-12.7,36.4-9.8,36.6-23.7,58.7C199.1,590.9,180.6,593.8,165.7,601.3L165.7,601.3z"/>
<path id="path3854" class="st0" d="M202.2,648.9c6.6-27-0.1-35.2,7-54.8c11.6-32,28.1-36.5,43.5-41c-1.8,21.5,0.9,35.1-11.1,58.4
	C233.1,628,215.5,638.7,202.2,648.9L202.2,648.9z"/>
<path id="path3856" class="st0" d="M275.9,596c0,0,13.3,25.7,8.9,55.4c-6.3,42.1-28.8,48.5-28.8,48.5s-12.8-19.2-11.5-58
	C245.9,600.3,275.9,596,275.9,596L275.9,596z"/>
<path id="path3858" class="st0" d="M323.9,638.9c0,0,13.3,26,10.4,55.9c-3.7,38.4-24.7,48-24.7,48s-13.2-21.4-13.8-53.7
	C294.9,639.7,323.9,638.9,323.9,638.9L323.9,638.9z"/>
<path id="path3862" class="st0" d="M1140.9,49c18.3,12.3,38.5,27.5,54.8,44.4c28.9,30.1,57.5,64,82.2,97.9
	c16.6,22.9,38.2,57.7,50,83.3c15.7,34.1,25,57.9,33.6,95.3c12.1,52.7,10.5,106.8-1.9,157.8c-18.1,75-76.2,137.8-134.1,188.8
	c-45.4,39.9-106.3,65.9-159.9,85.1l-5.5-14.6c53.1-19,109.4-44.3,152.8-82.6c55.9-49.2,107.6-109.2,129.8-180.7
	c13.6-43.5,16.7-91.3,9.6-137.5c-6.2-40.5-21.9-81.1-37.2-118c-12.6-30.3-27.2-54-45.1-78.9c-22.6-31.6-47.5-62.4-74-90.5
	c-17.1-18.2-40-34.6-58.4-47L1140.9,49z"/>
<path id="path3864" class="st0" d="M1164.2,757c0,0,37.6-11.9,67.5-8.4c47.4,5.6,51.8,35,51.8,35s-19,11.8-59.8,7.3
	C1175.9,785.7,1164.2,757,1164.2,757L1164.2,757z"/>
<path id="path3866" class="st0" d="M1228.2,713c0,0,31.7-15,61.8-14.8c52.1,0.4,55.2,28,55.2,28s-18.8,13.6-60.5,13
	C1236.5,738.6,1228.2,713,1228.2,713L1228.2,713z"/>
<path id="path3868" class="st0" d="M1275.7,666.8c0,0,30.2-26.4,59.3-33.7c50.5-12.7,67.2,16.7,67.2,16.7s-18.8,22.5-59.3,32.4
	C1296.3,693.6,1275.7,666.8,1275.7,666.8L1275.7,666.8z"/>
<path id="path3870" class="st0" d="M1329.2,595.6c0,0,25.8-27.2,61.1-38c46.1-14.2,67.7,13.6,68.4,14.3c0,0-18.9,23.8-58.3,34.2
	C1347.6,620,1329.2,595.6,1329.2,595.6L1329.2,595.6z"/>
<path id="path3872" class="st0" d="M1354.7,538.9c0,0,24-36.6,59.8-53.8c34.8-16.8,60.2-2.5,60.9-1.9c0,0-17.9,32.7-50.8,48.3
	C1380,552.7,1354.7,538.9,1354.7,538.9L1354.7,538.9z"/>
<path id="path3874" class="st0" d="M1362.4,489.2c12.8-12.1,13.8-44.8,32.1-71.4c25.6-37.1,67.7-34.4,68.4-34.1
	c0,0-4.5,46.2-36.5,74.2C1392.4,487.5,1362.4,489.2,1362.4,489.2L1362.4,489.2z"/>
<path id="path3876" class="st0" d="M1366,411.2c0,0-1.2-40.2,9.4-70.7c14.8-42.6,55.1-50.9,55.8-50.8c0,0,6.5,45.5-16.8,81
	C1389.5,408.4,1366,411.2,1366,411.2L1366,411.2z"/>
<path id="path3878" class="st0" d="M1348.9,335.9c0,0-8-33.7-4-65.8c6.1-48.3,43.7-58.5,44.4-58.5c0,0,12.9,44.7-5.4,83
	C1364.5,335.4,1348.9,335.9,1348.9,335.9L1348.9,335.9z"/>
<path id="path3880" class="st0" d="M1315.8,255.1c0,0-13.1-30.5-11.4-62.8c2.3-44.8,32.7-63.7,33.4-63.7c0,0,29.3,26.4,12.5,83.1
	C1340,246.2,1315.8,255.1,1315.8,255.1L1315.8,255.1z"/>
<path id="path3882" class="st0" d="M1273.6,188.6c0,0-19.5-30-24.8-61.8c-5.1-29.9,7.1-62.5,9.8-65.5c0,0,31.7,13.9,30.5,67.3
	C1288.2,164.5,1273.6,188.6,1273.6,188.6L1273.6,188.6z"/>
<path id="path3884" class="st0" d="M1221.9,124.4c0,0-23.2-24.7-29.2-58.5c-5-28,0-58.4,5.3-66c0,0,30.2,18.8,32.4,66.3
	C1232.1,102.2,1224.3,119.3,1221.9,124.4L1221.9,124.4z"/>
<path id="path3886" class="st0" d="M1184.4,85.1c0,0-44.2,1.6-66.2-11.2c-24.6-14.3-48.7-45.3-50.6-54.3c0,0,38.7-17,74.8,14
	C1169.7,57.1,1182.3,79.8,1184.4,85.1z"/>
<path id="path3888" class="st0" d="M1233.1,138.4c0,0-21.1-24.8-57.5-31.1c-28-4.9-49.5-0.4-63.3,7.7c0,0,21.3,27.3,62.2,31.1
	C1210.2,149.3,1227.8,140.7,1233.1,138.4L1233.1,138.4z"/>
<path id="path3890" class="st0" d="M1276.7,195.5c0,0-20.1-23.7-56.5-30.1c-28-4.9-41.4,0.1-55.3,8.2c0,0,17,26.1,57.9,29.8
	C1258.6,206.7,1271.4,197.7,1276.7,195.5L1276.7,195.5z"/>
<path id="path3892" class="st0" d="M1319.2,270c0,0-18.8-29.3-52.8-43.6c-34.8-14.7-52.7-7.7-67.7-2.1c4.8,7.2,24.3,37,56,46
	C1289.3,280.1,1313.6,271.3,1319.2,270L1319.2,270z"/>
<path id="path3894" class="st0" d="M1344.3,336.1c0,0-16.7-30.5-49.6-47.2c-33.7-17.1-52.1-11.4-67.4-6.9
	c4.3,7.5,21.6,38.7,52.6,49.9C1313.7,344.1,1338.7,337,1344.3,336.1L1344.3,336.1z"/>
<path id="path3896" class="st0" d="M1357.5,414.6c-14.4-18.5-22.3-38.4-44.4-58.1c-27.3-24.4-50.8-16.6-66.7-15
	c7.8,14.7,19.6,38,43.9,55.5C1319.4,418,1351.8,414.5,1357.5,414.6L1357.5,414.6z"/>
<path id="path3898" class="st0" d="M1355.8,487c-12.3-20-18.1-35.6-37.9-57.7c-24.4-27.3-47.6-22.4-63.6-22.7
	c6.1,15.5,16.5,38.7,38.7,58.8C1319.6,489.7,1350.2,486.3,1355.8,487z"/>
<path id="path3900" class="st0" d="M1340,544.8c-18.4-28.5-16.1-34.9-34.2-58.5c-19.4-25.4-43.9-24.7-59.8-26.2
	c4.9,15.9,12.2,37.5,32.8,59.2C1300.9,542.5,1323.8,539.5,1340,544.8L1340,544.8z"/>
<path id="path3902" class="st0" d="M1309.7,601.3c-11.6-25.2-9.6-40.9-20.3-58.8c-17.4-29.2-34.5-30.5-50.5-32
	c12.7,36.4,9.8,36.6,23.7,58.7C1276.3,590.9,1294.8,593.8,1309.7,601.3L1309.7,601.3z"/>
<path id="path3904" class="st0" d="M1273.1,648.9c-6.6-27,0.1-35.2-7-54.8c-11.6-32-28.1-36.5-43.5-41c1.8,21.5-0.9,35.1,11.1,58.4
	C1242.3,628,1259.9,638.7,1273.1,648.9L1273.1,648.9z"/>
<path id="path3906" class="st0" d="M1199.5,596c0,0-13.3,25.7-8.9,55.4c6.3,42.1,28.8,48.5,28.8,48.5s12.8-19.2,11.5-58
	C1229.5,600.3,1199.5,596,1199.5,596L1199.5,596z"/>
<path id="path3908" class="st0" d="M1151.5,638.9c0,0-13.3,26-10.4,55.9c3.7,38.4,24.7,48,24.7,48s13.2-21.4,13.8-53.7
	C1180.5,639.7,1151.5,638.9,1151.5,638.9L1151.5,638.9z"/>
<g>
	<path class="st0" d="M343.9,310.6c0,4.1-0.5,7.8-1.5,11c-1,3.2-2.5,6-4.4,8.2c-2,2.2-4.4,3.9-7.2,5.1c-2.9,1.2-6.2,1.8-9.9,1.8
		c-3.4,0-6.8-0.5-10.3-1.4c0.1-1,0.2-2,0.3-2.9c0.1-1,0.2-1.9,0.3-2.9c0.1-0.6,0.3-1,0.6-1.4s0.9-0.5,1.7-0.5c0.6,0,1.4,0.2,2.4,0.5
		c1,0.3,2.4,0.5,4.1,0.5c2.2,0,4.3-0.3,6-1c1.8-0.7,3.3-1.7,4.4-3.2c1.2-1.4,2.1-3.3,2.7-5.5c0.6-2.2,0.9-4.9,0.9-8v-48.2h9.9V310.6
		z"/>
	<path class="st0" d="M400.9,284.1v51.8h-5.4c-1.3,0-2.1-0.6-2.5-1.9l-0.7-5.6c-2.2,2.5-4.8,4.5-7.6,6c-2.8,1.5-6,2.3-9.6,2.3
		c-2.8,0-5.3-0.5-7.5-1.4c-2.2-0.9-4-2.3-5.4-4c-1.5-1.7-2.6-3.8-3.3-6.2c-0.7-2.4-1.1-5.1-1.1-8v-33h9.1v33c0,3.9,0.9,7,2.7,9.1
		s4.5,3.2,8.2,3.2c2.7,0,5.2-0.6,7.5-1.9c2.3-1.3,4.5-3,6.5-5.3v-38.2H400.9z"/>
	<path class="st0" d="M424,292.2c2.2-2.7,4.7-4.9,7.6-6.5c2.9-1.6,6.1-2.5,9.8-2.5c3,0,5.7,0.6,8.1,1.7c2.4,1.1,4.5,2.8,6.2,5.1
		c1.7,2.2,3,5,3.9,8.3c0.9,3.3,1.4,7.1,1.4,11.4c0,3.8-0.5,7.4-1.5,10.7c-1,3.3-2.5,6.1-4.4,8.5c-1.9,2.4-4.3,4.3-7.1,5.7
		c-2.8,1.4-5.9,2.1-9.4,2.1c-3.2,0-5.9-0.5-8.2-1.6c-2.3-1.1-4.3-2.6-6-4.5v22.9h-9.2v-69.3h5.5c1.3,0,2.1,0.6,2.4,1.9L424,292.2z
		 M424.5,323.5c1.7,2.3,3.5,3.8,5.5,4.8c2,0.9,4.2,1.4,6.6,1.4c4.8,0,8.6-1.7,11.1-5.2c2.6-3.4,3.9-8.4,3.9-14.7
		c0-3.4-0.3-6.3-0.9-8.7c-0.6-2.4-1.5-4.4-2.6-6c-1.1-1.6-2.5-2.7-4.1-3.4c-1.6-0.7-3.5-1.1-5.6-1.1c-3,0-5.6,0.7-7.8,2
		c-2.2,1.4-4.3,3.3-6.2,5.8V323.5z"/>
	<path class="st0" d="M484.2,267.9c0,0.9-0.2,1.7-0.5,2.5c-0.4,0.8-0.8,1.4-1.4,2c-0.6,0.6-1.3,1.1-2.1,1.4
		c-0.8,0.3-1.6,0.5-2.5,0.5c-0.9,0-1.7-0.2-2.5-0.5c-0.8-0.3-1.4-0.8-2-1.4c-0.6-0.6-1-1.3-1.4-2c-0.3-0.8-0.5-1.6-0.5-2.5
		c0-0.9,0.2-1.7,0.5-2.5c0.3-0.8,0.8-1.5,1.4-2.1c0.6-0.6,1.3-1.1,2-1.4c0.8-0.3,1.6-0.5,2.5-0.5c0.9,0,1.7,0.2,2.5,0.5
		c0.8,0.3,1.5,0.8,2.1,1.4c0.6,0.6,1.1,1.3,1.4,2.1C484,266.1,484.2,267,484.2,267.9z M482.3,284.1v51.8h-9.1v-51.8H482.3z"/>
	<path class="st0" d="M503.5,257.7c1.4,2.4,2.4,5,2.9,7.7c0.5,2.7,0.6,5.4,0.2,8c-0.4,2.6-1.3,5.1-2.6,7.6c-1.3,2.4-3,4.6-5.2,6.4
		l-2.8-1.8c-0.5-0.3-0.7-0.7-0.7-1.2c0.1-0.5,0.2-0.9,0.5-1.2c0.9-1.1,1.6-2.4,2.3-4c0.6-1.6,1-3.2,1.2-5c0.2-1.8,0.1-3.6-0.3-5.5
		c-0.4-1.9-1.1-3.8-2.1-5.5c-0.4-0.7-0.6-1.4-0.4-1.9c0.2-0.6,0.6-1,1.3-1.3L503.5,257.7z"/>
	<path class="st0" d="M546.9,292.7c-0.4,0.8-1,1.1-1.9,1.1c-0.5,0-1.1-0.2-1.7-0.6c-0.6-0.4-1.4-0.8-2.4-1.3
		c-0.9-0.5-2.1-0.9-3.4-1.3c-1.3-0.4-2.8-0.6-4.6-0.6c-1.5,0-2.9,0.2-4.1,0.6c-1.2,0.4-2.3,0.9-3.1,1.6c-0.9,0.7-1.5,1.5-2,2.4
		c-0.5,0.9-0.7,1.9-0.7,2.9c0,1.3,0.4,2.4,1.2,3.3c0.8,0.9,1.8,1.7,3,2.3c1.3,0.6,2.7,1.2,4.3,1.7c1.6,0.5,3.2,1,4.9,1.6
		s3.3,1.2,4.9,1.9c1.6,0.7,3,1.5,4.3,2.6c1.3,1,2.3,2.3,3,3.8c0.8,1.5,1.2,3.3,1.2,5.3c0,2.4-0.4,4.6-1.3,6.6
		c-0.9,2-2.1,3.8-3.8,5.3c-1.7,1.5-3.7,2.7-6.1,3.5c-2.4,0.9-5.2,1.3-8.4,1.3c-3.6,0-6.9-0.6-9.8-1.8c-2.9-1.2-5.4-2.7-7.5-4.5
		l2.1-3.5c0.3-0.4,0.6-0.8,1-1c0.4-0.2,0.9-0.4,1.4-0.4c0.6,0,1.3,0.2,1.9,0.7c0.7,0.5,1.5,1,2.5,1.6c1,0.6,2.2,1.1,3.6,1.6
		c1.4,0.5,3.1,0.7,5.2,0.7c1.8,0,3.3-0.2,4.7-0.7c1.3-0.5,2.4-1.1,3.3-1.9c0.9-0.8,1.5-1.7,2-2.7c0.4-1,0.6-2.1,0.6-3.3
		c0-1.4-0.4-2.6-1.2-3.6c-0.8-0.9-1.8-1.7-3-2.4c-1.3-0.7-2.7-1.2-4.3-1.7c-1.6-0.5-3.3-1-5-1.6c-1.7-0.5-3.3-1.2-5-1.9
		c-1.6-0.7-3.1-1.6-4.3-2.6c-1.3-1.1-2.3-2.4-3-3.9c-0.8-1.6-1.2-3.4-1.2-5.7c0-2,0.4-3.9,1.2-5.7c0.8-1.8,2-3.4,3.6-4.8
		c1.6-1.4,3.5-2.5,5.8-3.3c2.3-0.8,4.9-1.2,7.8-1.2c3.4,0,6.5,0.5,9.2,1.6c2.7,1.1,5.1,2.5,7,4.4L546.9,292.7z"/>
	<path class="st0" d="M611.7,310.6c0,4.1-0.5,7.8-1.5,11c-1,3.2-2.5,6-4.4,8.2c-2,2.2-4.4,3.9-7.2,5.1c-2.9,1.2-6.2,1.8-9.9,1.8
		c-3.4,0-6.8-0.5-10.3-1.4c0.1-1,0.2-2,0.3-2.9c0.1-1,0.2-1.9,0.3-2.9c0.1-0.6,0.3-1,0.6-1.4s0.9-0.5,1.7-0.5c0.6,0,1.4,0.2,2.4,0.5
		c1,0.3,2.4,0.5,4.1,0.5c2.2,0,4.3-0.3,6-1c1.8-0.7,3.3-1.7,4.4-3.2c1.2-1.4,2.1-3.3,2.7-5.5c0.6-2.2,0.9-4.9,0.9-8v-48.2h9.9V310.6
		z"/>
	<path class="st0" d="M624.1,291.4c2.9-2.8,5.9-4.8,9.3-6.2c3.3-1.4,7-2,11-2c2.9,0,5.5,0.5,7.7,1.4c2.3,1,4.1,2.3,5.7,4
		c1.5,1.7,2.7,3.8,3.5,6.2c0.8,2.4,1.2,5.1,1.2,8v33.1h-4c-0.9,0-1.6-0.1-2-0.4c-0.5-0.3-0.9-0.9-1.1-1.7l-1-4.9
		c-1.4,1.3-2.7,2.4-4,3.4c-1.3,1-2.7,1.8-4.1,2.5c-1.4,0.7-3,1.2-4.6,1.5c-1.6,0.4-3.4,0.5-5.4,0.5c-2,0-3.9-0.3-5.7-0.8
		c-1.8-0.6-3.3-1.4-4.6-2.5c-1.3-1.1-2.4-2.5-3.1-4.3c-0.8-1.7-1.2-3.8-1.2-6.1c0-2,0.6-4,1.7-5.9c1.1-1.9,2.9-3.6,5.5-5
		c2.5-1.5,5.8-2.7,9.9-3.6c4.1-0.9,9-1.5,14.9-1.6v-4c0-4-0.9-7.1-2.6-9.1c-1.7-2.1-4.3-3.1-7.6-3.1c-2.3,0-4.1,0.3-5.7,0.8
		c-1.5,0.6-2.8,1.2-3.9,1.9c-1.1,0.7-2.1,1.3-2.9,1.9c-0.8,0.6-1.6,0.8-2.4,0.8c-0.6,0-1.1-0.2-1.6-0.5c-0.4-0.3-0.8-0.7-1.1-1.2
		L624.1,291.4z M653.5,312.6c-4.2,0.1-7.8,0.5-10.7,1c-2.9,0.5-5.4,1.2-7.2,2.1c-1.9,0.9-3.2,1.9-4,3c-0.8,1.2-1.3,2.5-1.3,3.9
		c0,1.4,0.2,2.5,0.7,3.5c0.4,1,1,1.8,1.8,2.4s1.7,1.1,2.7,1.4c1,0.3,2.2,0.4,3.4,0.4c1.6,0,3.1-0.2,4.4-0.5c1.3-0.3,2.6-0.8,3.8-1.4
		c1.2-0.6,2.3-1.3,3.4-2.2c1.1-0.9,2.1-1.8,3.1-2.9V312.6z"/>
	<path class="st0" d="M676.3,335.9v-51.8h5.5c1.3,0,2.1,0.6,2.4,1.9l0.7,5.3c1.9-2.4,4.1-4.3,6.4-5.8c2.4-1.5,5.1-2.3,8.3-2.3
		c3.5,0,6.3,1,8.5,2.9c2.2,1.9,3.7,4.6,4.7,7.9c0.7-1.9,1.7-3.5,2.9-4.9c1.2-1.4,2.5-2.5,4-3.4c1.5-0.9,3-1.5,4.7-1.9s3.3-0.6,5-0.6
		c2.7,0,5.2,0.4,7.3,1.3c2.1,0.9,3.9,2.1,5.4,3.8c1.5,1.7,2.6,3.7,3.4,6.2c0.8,2.4,1.2,5.2,1.2,8.4v33h-9.2v-33
		c0-4.1-0.9-7.1-2.7-9.2s-4.3-3.1-7.7-3.1c-1.5,0-2.9,0.3-4.3,0.8c-1.3,0.5-2.5,1.3-3.6,2.3c-1,1-1.8,2.3-2.4,3.9
		c-0.6,1.6-0.9,3.3-0.9,5.4v33h-9.2v-33c0-4.2-0.8-7.3-2.5-9.3c-1.7-2-4.1-3.1-7.3-3.1c-2.2,0-4.3,0.6-6.2,1.8
		c-1.9,1.2-3.7,2.9-5.3,4.9v38.6H676.3z"/>
	<path class="st0" d="M798.6,270.7v25.6h30.1v8.1h-30.1v31.5h-9.9v-73.3h45.2v8.1H798.6z"/>
	<path class="st0" d="M835.8,291.4c2.9-2.8,5.9-4.8,9.3-6.2c3.3-1.4,7-2,11-2c2.9,0,5.5,0.5,7.7,1.4c2.2,1,4.1,2.3,5.7,4
		c1.5,1.7,2.7,3.8,3.5,6.2c0.8,2.4,1.2,5.1,1.2,8v33.1h-4c-0.9,0-1.6-0.1-2-0.4c-0.5-0.3-0.9-0.9-1.1-1.7l-1-4.9
		c-1.4,1.3-2.7,2.4-4,3.4c-1.3,1-2.7,1.8-4.1,2.5c-1.4,0.7-3,1.2-4.6,1.5c-1.6,0.4-3.4,0.5-5.4,0.5c-2,0-3.9-0.3-5.7-0.8
		c-1.8-0.6-3.3-1.4-4.6-2.5c-1.3-1.1-2.4-2.5-3.1-4.3c-0.8-1.7-1.2-3.8-1.2-6.1c0-2,0.6-4,1.7-5.9c1.1-1.9,2.9-3.6,5.5-5
		c2.5-1.5,5.8-2.7,9.9-3.6c4.1-0.9,9-1.5,14.9-1.6v-4c0-4-0.9-7.1-2.6-9.1c-1.7-2.1-4.3-3.1-7.6-3.1c-2.2,0-4.1,0.3-5.7,0.8
		c-1.5,0.6-2.8,1.2-3.9,1.9c-1.1,0.7-2.1,1.3-2.9,1.9c-0.8,0.6-1.6,0.8-2.4,0.8c-0.6,0-1.1-0.2-1.6-0.5c-0.4-0.3-0.8-0.7-1.1-1.2
		L835.8,291.4z M865.2,312.6c-4.2,0.1-7.8,0.5-10.7,1c-2.9,0.5-5.4,1.2-7.2,2.1c-1.9,0.9-3.2,1.9-4,3c-0.8,1.2-1.3,2.5-1.3,3.9
		c0,1.4,0.2,2.5,0.7,3.5c0.4,1,1,1.8,1.8,2.4c0.8,0.6,1.7,1.1,2.7,1.4c1,0.3,2.2,0.4,3.3,0.4c1.6,0,3.1-0.2,4.4-0.5
		c1.3-0.3,2.6-0.8,3.8-1.4c1.2-0.6,2.3-1.3,3.4-2.2c1.1-0.9,2.1-1.8,3.1-2.9V312.6z"/>
	<path class="st0" d="M931.3,284.1l-21.1,51.8H902l-21.1-51.8h7.4c0.7,0,1.4,0.2,1.8,0.6c0.5,0.4,0.8,0.8,1,1.3l13.1,33.3
		c0.4,1.3,0.8,2.5,1.1,3.7c0.3,1.2,0.6,2.4,0.9,3.6c0.3-1.2,0.6-2.4,0.9-3.6c0.3-1.2,0.7-2.4,1.1-3.7l13.3-33.3c0.2-0.5,0.5-1,1-1.4
		s1-0.5,1.7-0.5H931.3z"/>
	<path class="st0" d="M960.1,283.3c3.8,0,7.2,0.6,10.2,1.9c3,1.3,5.6,3.1,7.8,5.4c2.1,2.3,3.8,5.1,4.9,8.4c1.1,3.3,1.7,7,1.7,11
		c0,4.1-0.6,7.8-1.7,11c-1.1,3.3-2.8,6.1-4.9,8.4c-2.1,2.3-4.7,4.1-7.8,5.3c-3,1.2-6.4,1.9-10.2,1.9c-3.8,0-7.3-0.6-10.3-1.9
		c-3.1-1.2-5.7-3-7.8-5.3c-2.1-2.3-3.8-5.1-4.9-8.4s-1.7-7-1.7-11c0-4.1,0.6-7.7,1.7-11c1.1-3.3,2.8-6.1,4.9-8.4
		c2.1-2.3,4.7-4.1,7.8-5.4C952.8,283.9,956.3,283.3,960.1,283.3z M960.1,329.5c5.1,0,8.9-1.7,11.5-5.1c2.5-3.4,3.8-8.2,3.8-14.3
		c0-6.2-1.3-11-3.8-14.4c-2.5-3.4-6.3-5.2-11.5-5.2c-2.6,0-4.9,0.4-6.8,1.3c-1.9,0.9-3.5,2.2-4.8,3.8c-1.3,1.7-2.2,3.7-2.9,6.2
		c-0.6,2.4-0.9,5.2-0.9,8.3c0,6.1,1.3,10.9,3.8,14.3C951,327.8,954.9,329.5,960.1,329.5z"/>
	<path class="st0" d="M1004.9,294.5c1.6-3.5,3.6-6.3,6-8.3c2.4-2,5.3-3,8.7-3c1.1,0,2.1,0.1,3.1,0.4c1,0.2,1.9,0.6,2.7,1.1l-0.7,6.8
		c-0.2,0.9-0.7,1.3-1.5,1.3c-0.5,0-1.2-0.1-2.1-0.3c-0.9-0.2-2-0.3-3.1-0.3c-1.6,0-3.1,0.2-4.4,0.7c-1.3,0.5-2.4,1.2-3.4,2.1
		c-1,0.9-1.9,2.1-2.7,3.5s-1.5,3-2.2,4.7v32.7h-9.2v-51.8h5.2c1,0,1.7,0.2,2,0.6c0.4,0.4,0.6,1,0.8,1.9L1004.9,294.5z"/>
	<path class="st0" d="M1045,267.9c0,0.9-0.2,1.7-0.5,2.5c-0.4,0.8-0.8,1.4-1.4,2c-0.6,0.6-1.3,1.1-2.1,1.4c-0.8,0.3-1.6,0.5-2.5,0.5
		c-0.9,0-1.7-0.2-2.5-0.5c-0.8-0.3-1.4-0.8-2-1.4c-0.6-0.6-1-1.3-1.4-2s-0.5-1.6-0.5-2.5c0-0.9,0.2-1.7,0.5-2.5
		c0.3-0.8,0.8-1.5,1.4-2.1c0.6-0.6,1.3-1.1,2-1.4c0.8-0.3,1.6-0.5,2.5-0.5c0.9,0,1.7,0.2,2.5,0.5c0.8,0.3,1.5,0.8,2.1,1.4
		c0.6,0.6,1.1,1.3,1.4,2.1C1044.8,266.1,1045,267,1045,267.9z M1043.1,284.1v51.8h-9.1v-51.8H1043.1z"/>
	<path class="st0" d="M1073.9,336.8c-4.1,0-7.2-1.1-9.4-3.4c-2.2-2.3-3.3-5.6-3.3-9.9v-31.7h-6.2c-0.5,0-1-0.2-1.4-0.5
		c-0.4-0.3-0.6-0.8-0.6-1.5v-3.6l8.5-1.1l2.1-16c0.1-0.5,0.3-0.9,0.7-1.3c0.4-0.3,0.8-0.5,1.4-0.5h4.6v17.8h15v6.6h-15v31.1
		c0,2.2,0.5,3.8,1.6,4.9c1.1,1.1,2.4,1.6,4.1,1.6c1,0,1.8-0.1,2.5-0.4c0.7-0.3,1.3-0.5,1.8-0.8c0.5-0.3,0.9-0.6,1.3-0.8
		c0.4-0.3,0.7-0.4,0.9-0.4c0.5,0,0.9,0.3,1.3,0.9l2.7,4.3c-1.6,1.5-3.5,2.6-5.7,3.5C1078.6,336.3,1076.3,336.8,1073.9,336.8z"/>
	<path class="st0" d="M1136.5,328.7c-1.1,1.4-2.5,2.5-4,3.6c-1.6,1-3.2,1.8-5,2.5c-1.8,0.6-3.6,1.1-5.5,1.5
		c-1.9,0.3-3.8,0.5-5.7,0.5c-3.6,0-6.9-0.6-9.9-1.8c-3-1.2-5.6-3-7.8-5.3c-2.2-2.3-3.9-5.2-5.1-8.7c-1.2-3.4-1.8-7.4-1.8-11.9
		c0-3.6,0.6-7,1.7-10.1c1.1-3.1,2.7-5.9,4.8-8.2c2.1-2.3,4.6-4.1,7.6-5.4c3-1.3,6.4-2,10.1-2c3.1,0,6,0.5,8.6,1.6
		c2.6,1,4.9,2.5,6.9,4.5c1.9,2,3.4,4.4,4.5,7.3c1.1,2.9,1.6,6.2,1.6,9.8c0,1.4-0.2,2.4-0.5,2.9c-0.3,0.5-0.9,0.7-1.7,0.7h-34.6
		c0.1,3.3,0.6,6.1,1.4,8.5c0.8,2.4,1.9,4.4,3.3,6.1c1.4,1.6,3.1,2.8,5.1,3.6c2,0.8,4.2,1.2,6.6,1.2c2.3,0,4.3-0.3,5.9-0.8
		c1.7-0.5,3.1-1.1,4.3-1.7s2.2-1.2,3-1.7c0.8-0.5,1.5-0.8,2.1-0.8c0.7,0,1.3,0.3,1.7,0.9L1136.5,328.7z M1129.1,304.4
		c0-2.1-0.3-4-0.9-5.8c-0.6-1.8-1.5-3.3-2.6-4.6c-1.1-1.3-2.5-2.3-4.2-3c-1.6-0.7-3.5-1-5.6-1c-4.4,0-7.8,1.3-10.4,3.8
		c-2.5,2.5-4.1,6.1-4.7,10.6H1129.1z"/>
	<path class="st0" d="M1178.6,292.7c-0.4,0.8-1,1.1-1.9,1.1c-0.5,0-1.1-0.2-1.7-0.6c-0.6-0.4-1.4-0.8-2.4-1.3
		c-0.9-0.5-2.1-0.9-3.3-1.3c-1.3-0.4-2.8-0.6-4.6-0.6c-1.5,0-2.9,0.2-4.1,0.6c-1.2,0.4-2.3,0.9-3.1,1.6c-0.9,0.7-1.5,1.5-2,2.4
		c-0.5,0.9-0.7,1.9-0.7,2.9c0,1.3,0.4,2.4,1.2,3.3c0.8,0.9,1.8,1.7,3,2.3c1.3,0.6,2.7,1.2,4.3,1.7c1.6,0.5,3.2,1,4.9,1.6
		c1.7,0.6,3.3,1.2,4.9,1.9c1.6,0.7,3,1.5,4.3,2.6c1.3,1,2.3,2.3,3,3.8c0.8,1.5,1.2,3.3,1.2,5.3c0,2.4-0.4,4.6-1.3,6.6
		c-0.9,2-2.1,3.8-3.8,5.3c-1.7,1.5-3.7,2.7-6.1,3.5c-2.4,0.9-5.2,1.3-8.4,1.3c-3.6,0-6.9-0.6-9.8-1.8s-5.4-2.7-7.5-4.5l2.1-3.5
		c0.3-0.4,0.6-0.8,1-1c0.4-0.2,0.9-0.4,1.4-0.4c0.6,0,1.3,0.2,1.9,0.7c0.7,0.5,1.5,1,2.5,1.6c1,0.6,2.2,1.1,3.6,1.6
		c1.4,0.5,3.1,0.7,5.2,0.7c1.8,0,3.3-0.2,4.7-0.7c1.3-0.5,2.4-1.1,3.3-1.9c0.9-0.8,1.5-1.7,2-2.7c0.4-1,0.6-2.1,0.6-3.3
		c0-1.4-0.4-2.6-1.2-3.6c-0.8-0.9-1.8-1.7-3-2.4c-1.3-0.7-2.7-1.2-4.3-1.7c-1.6-0.5-3.3-1-5-1.6c-1.7-0.5-3.3-1.2-5-1.9
		c-1.6-0.7-3.1-1.6-4.3-2.6c-1.3-1.1-2.3-2.4-3-3.9c-0.8-1.6-1.2-3.4-1.2-5.7c0-2,0.4-3.9,1.2-5.7c0.8-1.8,2-3.4,3.6-4.8
		s3.5-2.5,5.8-3.3c2.3-0.8,4.9-1.2,7.8-1.2c3.4,0,6.5,0.5,9.2,1.6c2.7,1.1,5.1,2.5,7,4.4L1178.6,292.7z"/>
	<path class="st0" d="M452.1,450.3v8.3h-41.6v-73.3h9.9v64.9H452.1z"/>
	<path class="st0" d="M500.6,406.9v51.8h-5.4c-1.3,0-2.1-0.6-2.5-1.9l-0.7-5.6c-2.2,2.5-4.8,4.5-7.6,6c-2.8,1.5-6,2.3-9.6,2.3
		c-2.8,0-5.3-0.5-7.5-1.4c-2.2-0.9-4-2.3-5.4-4c-1.5-1.7-2.6-3.8-3.3-6.2c-0.7-2.4-1.1-5.1-1.1-8v-33h9.1v33c0,3.9,0.9,7,2.7,9.1
		c1.8,2.1,4.5,3.2,8.2,3.2c2.7,0,5.2-0.6,7.5-1.9c2.3-1.3,4.5-3,6.5-5.3v-38.2H500.6z"/>
	<path class="st0" d="M557.9,383.3v75.3h-5.4c-1.3,0-2.1-0.6-2.5-1.9l-0.8-6.3c-2.2,2.7-4.7,4.8-7.6,6.4c-2.8,1.6-6.1,2.5-9.8,2.5
		c-3,0-5.7-0.6-8.1-1.7c-2.4-1.1-4.5-2.8-6.2-5c-1.7-2.2-3-5-3.9-8.3c-0.9-3.3-1.4-7.1-1.4-11.4c0-3.8,0.5-7.4,1.5-10.7
		c1-3.3,2.5-6.1,4.4-8.6c1.9-2.4,4.3-4.3,7-5.7c2.8-1.4,5.9-2.1,9.4-2.1c3.2,0,5.9,0.5,8.2,1.6c2.3,1.1,4.3,2.6,6.1,4.5v-28.7H557.9
		z M548.8,419.2c-1.7-2.3-3.5-3.9-5.5-4.8c-2-0.9-4.2-1.4-6.6-1.4c-4.8,0-8.5,1.7-11.1,5.2c-2.6,3.4-3.9,8.4-3.9,14.7
		c0,3.4,0.3,6.3,0.9,8.7c0.6,2.4,1.4,4.4,2.6,5.9c1.1,1.6,2.5,2.7,4.1,3.4c1.6,0.7,3.5,1.1,5.6,1.1c3,0,5.6-0.7,7.9-2
		c2.2-1.4,4.3-3.3,6.2-5.8V419.2z"/>
	<path class="st0" d="M614.9,406.9v51.8h-5.4c-1.3,0-2.1-0.6-2.5-1.9l-0.7-5.6c-2.2,2.5-4.8,4.5-7.6,6c-2.8,1.5-6,2.3-9.6,2.3
		c-2.8,0-5.3-0.5-7.5-1.4c-2.2-0.9-4-2.3-5.4-4c-1.5-1.7-2.6-3.8-3.3-6.2c-0.7-2.4-1.1-5.1-1.1-8v-33h9.1v33c0,3.9,0.9,7,2.7,9.1
		c1.8,2.1,4.5,3.2,8.2,3.2c2.7,0,5.2-0.6,7.5-1.9c2.3-1.3,4.5-3,6.5-5.3v-38.2H614.9z"/>
	<path class="st0" d="M629.3,458.7v-51.8h5.5c1.3,0,2.1,0.6,2.4,1.9l0.7,5.3c1.9-2.4,4.1-4.3,6.4-5.8c2.4-1.5,5.1-2.3,8.3-2.3
		c3.5,0,6.3,1,8.5,2.9c2.2,1.9,3.7,4.6,4.7,7.9c0.7-1.9,1.7-3.5,2.9-4.9c1.2-1.4,2.5-2.5,4-3.4c1.5-0.9,3-1.5,4.7-1.9
		c1.7-0.4,3.3-0.6,5-0.6c2.7,0,5.2,0.4,7.3,1.3c2.1,0.9,3.9,2.1,5.4,3.8c1.5,1.7,2.6,3.7,3.4,6.2c0.8,2.4,1.2,5.2,1.2,8.4v33h-9.2
		v-33c0-4.1-0.9-7.1-2.7-9.2c-1.8-2.1-4.3-3.1-7.7-3.1c-1.5,0-2.9,0.3-4.3,0.8c-1.3,0.5-2.5,1.3-3.6,2.3c-1,1-1.8,2.3-2.4,3.9
		c-0.6,1.6-0.9,3.3-0.9,5.4v33h-9.2v-33c0-4.2-0.8-7.3-2.5-9.3s-4.1-3.1-7.3-3.1c-2.2,0-4.3,0.6-6.2,1.8c-1.9,1.2-3.7,2.9-5.3,4.9
		v38.6H629.3z"/>
	<path class="st0" d="M805.3,422.1c0,5.5-0.9,10.5-2.6,15c-1.7,4.5-4.2,8.4-7.4,11.6c-3.2,3.2-7,5.7-11.4,7.4
		c-4.4,1.8-9.4,2.6-14.8,2.6h-27.4v-73.3h27.4c5.4,0,10.3,0.9,14.8,2.6c4.4,1.8,8.3,4.2,11.4,7.5c3.2,3.2,5.6,7.1,7.4,11.6
		C804.4,411.6,805.3,416.6,805.3,422.1z M795.1,422.1c0-4.5-0.6-8.5-1.8-12.1s-3-6.5-5.2-9c-2.2-2.5-5-4.3-8.2-5.6
		c-3.2-1.3-6.8-1.9-10.7-1.9h-17.4v57.2h17.4c4,0,7.5-0.6,10.7-1.9c3.2-1.3,5.9-3.2,8.2-5.6c2.3-2.4,4-5.4,5.2-9
		S795.1,426.6,795.1,422.1z"/>
	<path class="st0" d="M814.7,414.2c2.9-2.8,5.9-4.8,9.3-6.2c3.3-1.4,7-2,11-2c2.9,0,5.5,0.5,7.7,1.4c2.2,1,4.1,2.3,5.7,4
		c1.5,1.7,2.7,3.8,3.5,6.2c0.8,2.4,1.2,5.1,1.2,8v33.1h-4c-0.9,0-1.6-0.1-2-0.4s-0.9-0.9-1.1-1.7l-1-4.9c-1.4,1.3-2.7,2.4-4,3.4
		c-1.3,1-2.7,1.8-4.1,2.5c-1.4,0.7-3,1.2-4.6,1.5c-1.6,0.4-3.4,0.5-5.4,0.5c-2,0-3.9-0.3-5.7-0.8c-1.8-0.6-3.3-1.4-4.6-2.5
		c-1.3-1.1-2.4-2.5-3.1-4.3c-0.8-1.7-1.2-3.8-1.2-6.1c0-2,0.6-4,1.7-5.9c1.1-1.9,2.9-3.6,5.5-5c2.5-1.5,5.8-2.7,9.9-3.6
		c4.1-0.9,9-1.5,14.9-1.6v-4c0-4-0.9-7.1-2.6-9.1c-1.7-2.1-4.3-3.1-7.6-3.1c-2.2,0-4.1,0.3-5.7,0.8c-1.5,0.6-2.8,1.2-3.9,1.9
		c-1.1,0.7-2.1,1.3-2.9,1.9c-0.8,0.6-1.6,0.8-2.4,0.8c-0.6,0-1.1-0.2-1.6-0.5s-0.8-0.7-1.1-1.2L814.7,414.2z M844.2,435.4
		c-4.2,0.1-7.8,0.5-10.7,1c-2.9,0.5-5.4,1.2-7.2,2.1c-1.9,0.9-3.2,1.9-4,3c-0.8,1.2-1.3,2.5-1.3,3.9c0,1.4,0.2,2.5,0.7,3.5
		c0.4,1,1,1.8,1.8,2.4c0.8,0.6,1.7,1.1,2.7,1.4c1,0.3,2.2,0.4,3.3,0.4c1.6,0,3.1-0.2,4.4-0.5s2.6-0.8,3.8-1.4
		c1.2-0.6,2.3-1.3,3.4-2.2c1.1-0.9,2.1-1.8,3.1-2.9V435.4z"/>
	<path class="st0" d="M875.6,417.3c1.6-3.5,3.6-6.3,6-8.3c2.4-2,5.3-3,8.7-3c1.1,0,2.1,0.1,3.1,0.4c1,0.2,1.9,0.6,2.7,1.1l-0.7,6.8
		c-0.2,0.9-0.7,1.3-1.5,1.3c-0.5,0-1.2-0.1-2.1-0.3c-0.9-0.2-2-0.3-3.1-0.3c-1.6,0-3.1,0.2-4.4,0.7c-1.3,0.5-2.4,1.2-3.4,2.1
		c-1,0.9-1.9,2.1-2.7,3.5s-1.5,3-2.2,4.7v32.7h-9.2v-51.8h5.2c1,0,1.7,0.2,2,0.6c0.4,0.4,0.6,1,0.8,1.9L875.6,417.3z"/>
	<path class="st0" d="M944.1,451.4c-1.1,1.4-2.5,2.5-4,3.6s-3.2,1.8-5,2.5c-1.8,0.6-3.6,1.1-5.5,1.5c-1.9,0.3-3.8,0.5-5.7,0.5
		c-3.6,0-6.9-0.6-9.9-1.8c-3-1.2-5.6-3-7.8-5.3c-2.2-2.3-3.9-5.2-5.1-8.7s-1.8-7.4-1.8-11.9c0-3.6,0.6-7,1.7-10.1
		c1.1-3.1,2.7-5.9,4.8-8.2c2.1-2.3,4.6-4.1,7.6-5.4c3-1.3,6.4-2,10.1-2c3.1,0,6,0.5,8.6,1.6c2.6,1,4.9,2.5,6.9,4.5
		c1.9,2,3.4,4.4,4.5,7.3c1.1,2.9,1.6,6.2,1.6,9.8c0,1.4-0.2,2.4-0.5,2.9s-0.9,0.7-1.7,0.7h-34.6c0.1,3.3,0.6,6.1,1.4,8.5
		c0.8,2.4,1.9,4.4,3.3,6.1c1.4,1.6,3.1,2.8,5.1,3.6c2,0.8,4.2,1.2,6.6,1.2c2.3,0,4.3-0.3,5.9-0.8c1.7-0.5,3.1-1.1,4.3-1.7
		c1.2-0.6,2.2-1.2,3-1.7c0.8-0.5,1.5-0.8,2.1-0.8c0.7,0,1.3,0.3,1.7,0.9L944.1,451.4z M936.7,427.1c0-2.1-0.3-4-0.9-5.8
		c-0.6-1.8-1.5-3.3-2.6-4.6c-1.1-1.3-2.5-2.3-4.2-3c-1.6-0.7-3.5-1-5.6-1c-4.4,0-7.8,1.3-10.4,3.8c-2.5,2.5-4.1,6.1-4.7,10.6H936.7z
		"/>
	<path class="st0" d="M981.7,405.2c0.5-3.3,1.4-6.3,2.8-8.9c1.4-2.6,3.1-4.7,5.2-6.5s4.5-3.1,7.2-4c2.7-0.9,5.6-1.4,8.8-1.4
		c3.1,0,6,0.4,8.6,1.3c2.6,0.9,4.9,2.1,6.8,3.8c1.9,1.6,3.4,3.6,4.4,5.9c1.1,2.3,1.6,4.9,1.6,7.7c0,2.3-0.3,4.4-0.9,6.2
		c-0.6,1.8-1.5,3.4-2.6,4.8c-1.1,1.4-2.4,2.5-4,3.5c-1.6,1-3.3,1.7-5.3,2.4c4.8,1.2,8.4,3.3,10.8,6.3c2.4,3,3.6,6.7,3.6,11.2
		c0,3.4-0.6,6.4-1.9,9.1c-1.3,2.7-3,5-5.2,6.9c-2.2,1.9-4.8,3.3-7.7,4.3s-6.1,1.5-9.5,1.5c-3.9,0-7.2-0.5-10-1.5c-2.8-1-5.1-2.3-7-4
		c-1.9-1.7-3.5-3.7-4.7-6.1c-1.2-2.3-2.3-4.9-3.1-7.6l3.9-1.6c1-0.4,2-0.6,3-0.4c1,0.2,1.7,0.8,2.1,1.7c0.4,1,1,2.1,1.7,3.4
		c0.7,1.3,1.6,2.6,2.7,3.8c1.2,1.2,2.6,2.3,4.4,3.1c1.8,0.9,4.1,1.3,6.8,1.3c2.6,0,4.8-0.4,6.7-1.3c1.9-0.8,3.5-1.9,4.8-3.2
		c1.3-1.3,2.2-2.8,2.9-4.4s1-3.3,1-4.9c0-2-0.3-3.8-0.8-5.4c-0.5-1.6-1.5-3.1-2.9-4.2c-1.4-1.2-3.3-2.1-5.8-2.8
		c-2.4-0.7-5.6-1-9.4-1v-6.6c3.1,0,5.8-0.4,8-1s4-1.5,5.4-2.7s2.4-2.5,3-4s0.9-3.3,0.9-5.2c0-2.1-0.3-4-1-5.5
		c-0.7-1.6-1.6-2.9-2.7-3.9s-2.5-1.8-4.1-2.3c-1.6-0.5-3.3-0.8-5.1-0.8c-1.8,0-3.6,0.3-5.1,0.8c-1.6,0.5-3,1.3-4.2,2.3
		s-2.2,2.1-3,3.5s-1.4,2.8-1.7,4.4c-0.4,1.2-1,2-1.7,2.4c-0.7,0.4-1.6,0.5-2.9,0.3L981.7,405.2z"/>
	<path class="st0" d="M1090.6,422.1c0,6.4-0.7,12-2.1,16.6s-3.3,8.6-5.7,11.6s-5.2,5.4-8.5,6.9c-3.3,1.5-6.7,2.2-10.5,2.2
		c-3.8,0-7.2-0.8-10.5-2.2c-3.2-1.5-6-3.8-8.4-6.9s-4.3-6.9-5.6-11.6c-1.4-4.7-2-10.2-2-16.6c0-6.4,0.7-12,2-16.7
		c1.4-4.7,3.2-8.6,5.6-11.7c2.4-3.1,5.2-5.4,8.4-6.9c3.2-1.5,6.7-2.3,10.5-2.3c3.7,0,7.2,0.8,10.5,2.3c3.3,1.5,6.1,3.8,8.5,6.9
		c2.4,3.1,4.3,7,5.7,11.7C1089.9,410.1,1090.6,415.7,1090.6,422.1z M1081.1,422.1c0-5.6-0.5-10.3-1.4-14.1c-0.9-3.8-2.2-6.9-3.8-9.2
		c-1.6-2.3-3.4-4-5.5-5c-2.1-1-4.2-1.5-6.5-1.5s-4.4,0.5-6.5,1.5c-2.1,1-3.9,2.7-5.5,5c-1.6,2.3-2.8,5.4-3.8,9.2
		c-0.9,3.8-1.4,8.5-1.4,14.1s0.5,10.3,1.4,14.1c0.9,3.8,2.2,6.8,3.8,9.2c1.6,2.3,3.4,4,5.5,5c2.1,1,4.2,1.5,6.5,1.5s4.4-0.5,6.5-1.5
		c2.1-1,3.9-2.7,5.5-5c1.6-2.3,2.8-5.4,3.8-9.2C1080.7,432.3,1081.1,427.7,1081.1,422.1z"/>
	<path class="st0" d="M414.6,509.8c1.8,0,3.2,1.3,3.2,3.2v45.4c0,6.8-1.4,24.9-25.7,24.9c-21.8,0-25.2-14.6-25.6-22.5
		c-0.1-1.4,0.8-2.6,2.2-2.9l11.4-2.6c2.1-0.4,3.8,1,4.1,3.2c0.5,4.5,2.4,7.2,7.9,7.2c7.6,0,8.1-4.8,8.1-12.7v-40
		c0-1.8,1.3-3.2,3.2-3.2H414.6z"/>
	<path class="st0" d="M441.4,509.8c2,0,3.1,1,3.1,3.1V553c0,7.9,0.5,12.7,8.1,12.7c7.6,0,8.1-4.8,8.1-12.7v-40.1
		c0-2,1.1-3.1,3.1-3.1h11.5c2,0,3.1,1,3.1,3.1v45.5c0,6.8-1.4,24.9-25.7,24.9s-25.7-18.1-25.7-24.9v-45.5c0-2,1.1-3.1,3.1-3.1H441.4
		z"/>
	<path class="st0" d="M513.4,509.8c18.2,0,25.6,7.8,25.6,24.5c0,16.8-7.4,24.5-25.6,24.5h-4.9c-1.9,0-3.1,1-3.1,3.1v16.4
		c0,2-1,3.1-3.1,3.1h-11.5c-1.9,0-3.1-1.1-3.1-3.1V513c0-2,1-3.1,3.1-3.2H513.4z M514,541.3c4.9,0,7.4-0.6,7.4-7c0-6.3-2.5-7-7.4-7
		h-5.5c-1.9,0-3.1,1-3.1,3.1v7.8c0,1.9,1.1,3.1,3.1,3.1H514z"/>
	<path class="st0" d="M559.6,509.8c2,0,3.1,1,3.1,3.1v65.5c0,1.9-1,3.1-3.1,3.1h-11.3c-1.9,0-3.1-1.1-3.1-3.1v-65.5
		c0-2,1.1-3.1,3.1-3.1H559.6z"/>
	<path class="st0" d="M589.3,530.5c0-2-1-3.1-3.1-3.1h-14.3c-1.9,0-3.1-1.1-3.1-3.1v-11.5c0-2,1.1-3.1,3.1-3.1h52.4
		c2,0,3.1,1,3.1,3.1v11.5c0,1.9-1,3.1-3.1,3.1H610c-1.9,0-3.1,1-3.1,3.1v47.9c0,1.9-1,3.1-3.1,3.1h-11.5c-1.9,0-3.1-1.1-3.1-3.1
		V530.5z"/>
	<path class="st0" d="M679.5,509.8c2,0,3.1,1,3.1,3.1v11.5c0,1.9-1,3.1-3.1,3.1h-24.8c-1.9,0-3.1,1-3.1,3.1v3.3
		c0,1.9,1.1,3.1,3.1,3.1h15.9c2,0,3.1,1,3.1,3.1v11.5c0,1.9-1,3.1-3.1,3.1h-15.9c-1.9,0-3.1,1-3.1,3.1v3.3c0,1.9,1.1,3.1,3.1,3.1
		h24.8c2,0,3.1,1,3.1,3.1v11.5c0,2-1,3.1-3.1,3.1h-43c-1.9,0-3.1-1.1-3.1-3.1v-65.5c0-2,1.1-3.1,3.1-3.1H679.5z"/>
	<path class="st0" d="M744.4,575.9c1.4,2.7-0.2,5.5-3.4,5.5h-11.7c-1,0-1.9-0.5-2.4-1.4l-10.6-20.6c-0.2-0.3-0.5-0.5-0.8-0.5h-4.1
		c-1.8,0-3.2,1.3-3.2,3.2v16.2c0,1.8-1.3,3.2-3.2,3.2h-11.5c-1.8,0-3.2-1.3-3.2-3.2V513c0-1.8,1.3-3.2,3.2-3.2H716
		c18.2,0,25.6,7.8,25.6,24.5c0,9.5-2.4,16.2-7.8,20c-0.4,0.3-0.5,0.8-0.3,1.3L744.4,575.9z M711.4,527.4c-1.8,0-3.2,1.3-3.2,3.2v7.6
		c0,1.8,1.3,3.2,3.2,3.2h5.2c4.9,0,7.4-0.6,7.4-7c0-6.3-2.5-7-7.4-7H711.4z"/>
	<path class="st0" d="M796.3,509.8c1.9,0,3.1,1.1,3.1,3.1v25.6c0,1.9,1.1,3.1,3.1,3.1h9.8c2,0,3.1-1.1,3.1-3.1v-25.6
		c0-1.9,1.1-3.1,3.1-3.1h11.5c2,0,3.1,1,3.1,3.1v65.5c0,1.9-1,3.1-3.1,3.1h-11.5c-1.9,0-3.1-1.1-3.1-3.1v-16.2c0-2-1-3.1-3.1-3.1
		h-9.8c-1.9,0-3.1,1-3.1,3.1v16.2c0,1.9-1,3.1-3.1,3.1h-11.5c-1.9,0-3.1-1.1-3.1-3.1v-65.5c0-2,1-3.1,3.1-3.1H796.3z"/>
	<path class="st0" d="M892.8,577.9c0,2.2-1,3.5-3.1,3.5h-11.5c-1.9,0-3.1-1-3.1-3.1v-8.9c0-2-1-3.1-3.1-3.1h-8.8
		c-1.9,0-3.1,1-3.1,3.1v8.9c0,2-1,3.1-3.1,3.1h-11.5c-1.9,0-3.1-1.2-3.1-3.5v-43.4c0-12.9,2-26.6,25.1-26.6s25.1,13.7,25.1,26.6
		V577.9z M875.2,534.6c0-4.9-0.7-7.4-7.5-7.4s-7.5,2.5-7.5,7.4v11.1c0,1.9,1.1,3.1,3.1,3.1h8.8c2-0.1,3.1-1.1,3.1-3.2V534.6z"/>
	<path class="st0" d="M928.4,509.8c19.2,0,25.6,7.8,25.6,24.5v22.4c0,16.8-6.3,24.6-25.6,24.6h-22.8c-1.9,0-3.1-1.1-3.1-3.1V513
		c0-2,1-3.1,3.1-3.2H928.4z M928.7,563.8c4.9,0,7.4-0.8,7.4-7c0-0.1,0-22.4,0-22.5c0-6.3-2.5-7-7.4-7h-5.5c-1.9,0-3.1,1-3.1,3.1
		v30.3c0,1.9,1.1,3.1,3.1,3.1H928.7z"/>
	<path class="st0" d="M977.6,509.8c2,0,3.1,1,3.1,3.1v47.9c0,1.9,1.1,3.1,3.1,3.1h22.8c2,0,3.1,1,3.1,3.1v11.5c0,2-1,3.1-3.1,3.1
		h-40.4c-1.9,0-3.1-1.1-3.1-3.1v-65.5c0-2,1.1-3.1,3.1-3.1H977.6z"/>
	<path class="st0" d="M1062,509.8c2,0,3.1,1,3.1,3.1v11.5c0,1.9-1,3.1-3.1,3.1h-24.8c-1.9,0-3.1,1-3.1,3.1v3.3
		c0,1.9,1.1,3.1,3.1,3.1h15.9c2,0,3.1,1,3.1,3.1v11.5c0,1.9-1,3.1-3.1,3.1h-15.9c-1.9,0-3.1,1-3.1,3.1v3.3c0,1.9,1.1,3.1,3.1,3.1
		h24.8c2,0,3.1,1,3.1,3.1v11.5c0,2-1,3.1-3.1,3.1h-43c-1.9,0-3.1-1.1-3.1-3.1v-65.5c0-2,1.1-3.1,3.1-3.1H1062z"/>
	<path class="st0" d="M1086.9,509.8c1.7,0,2.9,0.7,3.5,2.4l7.6,19c0.4,0.9,1,0.9,1.4,0l7.6-19c0.6-1.6,1.7-2.4,3.5-2.4h14.6
		c2.4,0,3.4,1.4,2.4,3.6l-18.3,40.9c-0.2,0.4-0.2,0.8-0.2,1.2v22.8c0,1.9-1,3.1-3.1,3.1h-14.3c-1.9,0-3.1-1.1-3.1-3.1v-22.8
		c0-0.4,0-0.8-0.2-1.2l-18.4-40.9c-1-2.1,0-3.6,2.4-3.6H1086.9z"/>
</g>
</svg>
